<svg xmlns="http://www.w3.org/2000/svg" width="485.5" height="174.963" viewBox="0 0 485.5 174.963">
  <g id="Group_9189" data-name="Group 9189" transform="translate(0.1 -54.404)">
    <g id="Group_1324" data-name="Group 1324" transform="translate(315.007 87.046)">
      <g id="Group_1323" data-name="Group 1323">
        <path id="Path_1452" data-name="Path 1452" d="M144.7,174.486v-16.1a22.847,22.847,0,0,0,22.85-22.85V40h16.1v95.751A38.868,38.868,0,0,1,144.7,174.486Z" transform="translate(-144.7 -40)" fill="#216ca9"/>
      </g>
    </g>
    <g id="Group_1325" data-name="Group 1325" transform="translate(-0.1 87.046)">
      <path id="Path_1453" data-name="Path 1453" d="M270.831,40.218a55.7,55.7,0,0,0-39.171,95.316H217.733a17.09,17.09,0,0,1-17.192-17.192V40h-16.1v78.342a17.192,17.192,0,1,1-34.383,0V40H133.733v78.342a17.09,17.09,0,0,1-17.192,17.192H94.78l.218-.218h0a69.392,69.392,0,0,0,7.181-8.7A55.71,55.71,0,0,0,95,56.539h0a55.7,55.7,0,1,0-39.388,95.1h.435L36.677,171l11.316,11.316,30.684-30.684h37.865a32.843,32.843,0,0,0,25.243-11.751,33.183,33.183,0,0,0,25.243,11.751A33.731,33.731,0,0,0,192.272,140.1a32.989,32.989,0,0,0,25.243,11.534h53.1a61.9,61.9,0,0,0,11.1-1.088,55.914,55.914,0,0,0,44.394-54.621A55.308,55.308,0,0,0,270.831,40.218ZM27.755,124A39.5,39.5,0,0,1,55.827,56.539,40.078,40.078,0,0,1,83.9,68.072,39.543,39.543,0,0,1,88.9,117.906a70.79,70.79,0,0,1-5.005,6.311A40,40,0,0,1,27.755,124Zm250.911,10.663a48.012,48.012,0,0,1-8.052.87,39.841,39.841,0,1,1,8.052-.87Z" transform="translate(0.1 -40)" fill="#216ca9"/>
    </g>
    <g id="Group_1327" data-name="Group 1327" transform="translate(366.582 87.046)">
      <g id="Group_1326" data-name="Group 1326">
        <path id="Path_1454" data-name="Path 1454" d="M287,40H202.348V59.15H230.42a39.551,39.551,0,1,1-45.264,47c-.218-.87-.435-3.264-.653-5.44a46.462,46.462,0,0,1,0-5.658V40H168.4v60.062s.218,2.176.218,2.829c.218,2.176.435,4.352.87,6.528a55.739,55.739,0,1,0,89.875-54.4h27.855V40Z" transform="translate(-168.4 -40)" fill="#216ca9"/>
      </g>
    </g>
    <g id="Group_1328" data-name="Group 1328" transform="translate(77.153 54.404)">
      <circle id="Ellipse_40" data-name="Ellipse 40" cx="12.839" cy="12.839" r="12.839" fill="#216ca9"/>
    </g>
    <g id="Group_1329" data-name="Group 1329" transform="translate(107.402 54.404)">
      <circle id="Ellipse_41" data-name="Ellipse 41" cx="12.839" cy="12.839" r="12.839" fill="#216ca9"/>
    </g>
    <g id="Group_1330" data-name="Group 1330" transform="translate(154.842 54.404)">
      <circle id="Ellipse_42" data-name="Ellipse 42" cx="12.839" cy="12.839" r="12.839" fill="#216ca9"/>
    </g>
  </g>
</svg>
