<svg xmlns="http://www.w3.org/2000/svg" width="176.852" height="63.733" viewBox="0 0 176.852 63.733">
  <g id="Group_9196" data-name="Group 9196" transform="translate(0.1 -54.404)">
    <g id="Group_1324" data-name="Group 1324" transform="translate(114.683 66.294)">
      <g id="Group_1323" data-name="Group 1323">
        <path id="Path_1452" data-name="Path 1452" d="M144.7,88.989V83.123a8.322,8.322,0,0,0,8.323-8.323V40h5.866V74.879A14.158,14.158,0,0,1,144.7,88.989Z" transform="translate(-144.7 -40)" fill="#175f9b"/>
      </g>
    </g>
    <g id="Group_1325" data-name="Group 1325" transform="translate(-0.1 66.294)">
      <path id="Path_1453" data-name="Path 1453" d="M98.591,40.079A20.291,20.291,0,0,0,84.323,74.8H79.249a6.225,6.225,0,0,1-6.262-6.262V40H67.121V68.537a6.262,6.262,0,0,1-12.525,0V40H48.651V68.537A6.225,6.225,0,0,1,42.389,74.8H34.462l.079-.079h0a25.279,25.279,0,0,0,2.616-3.171,20.293,20.293,0,0,0-2.616-25.525h0A20.291,20.291,0,1,0,20.193,80.666h.159L13.3,87.721l4.122,4.122L28.6,80.666H42.389a11.964,11.964,0,0,0,9.2-4.281,12.087,12.087,0,0,0,9.2,4.281,12.287,12.287,0,0,0,9.2-4.2,12.017,12.017,0,0,0,9.2,4.2H98.512a22.548,22.548,0,0,0,4.043-.4,20.368,20.368,0,0,0,16.171-19.9A20.147,20.147,0,0,0,98.591,40.079ZM10.047,70.6A14.388,14.388,0,0,1,20.272,46.025a14.6,14.6,0,0,1,10.226,4.2,14.4,14.4,0,0,1,1.823,18.153,25.785,25.785,0,0,1-1.823,2.3A14.57,14.57,0,0,1,10.047,70.6Zm91.4,3.884a17.489,17.489,0,0,1-2.933.317,14.513,14.513,0,1,1,2.933-.317Z" transform="translate(0.1 -40)" fill="#175f9b"/>
    </g>
    <g id="Group_1327" data-name="Group 1327" transform="translate(133.47 66.294)">
      <g id="Group_1326" data-name="Group 1326">
        <path id="Path_1454" data-name="Path 1454" d="M211.6,40H180.766v6.976h10.226A14.407,14.407,0,1,1,174.5,64.1c-.079-.317-.159-1.189-.238-1.982a16.924,16.924,0,0,1,0-2.061V40H168.4V61.879s.079.793.079,1.031c.079.793.159,1.585.317,2.378A20.3,20.3,0,1,0,201.535,45.47h10.147V40Z" transform="translate(-168.4 -40)" fill="#175f9b"/>
      </g>
    </g>
    <g id="Group_1328" data-name="Group 1328" transform="translate(28.041 54.404)">
      <circle id="Ellipse_40" data-name="Ellipse 40" cx="4.677" cy="4.677" r="4.677" fill="#175f9b"/>
    </g>
    <g id="Group_1329" data-name="Group 1329" transform="translate(39.059 54.404)">
      <circle id="Ellipse_41" data-name="Ellipse 41" cx="4.677" cy="4.677" r="4.677" fill="#175f9b"/>
    </g>
    <g id="Group_1330" data-name="Group 1330" transform="translate(56.34 54.404)">
      <circle id="Ellipse_42" data-name="Ellipse 42" cx="4.677" cy="4.677" r="4.677" fill="#175f9b"/>
    </g>
  </g>
</svg>
